<svg width="426" height="324" viewBox="0 0 426 324" fill="none" xmlns="http://www.w3.org/2000/svg">
<path d="M262.06 0.71167H159.708C128.78 0.71167 103.708 25.7837 103.708 56.7117V159.064C103.708 189.992 128.78 215.064 159.708 215.064H262.06C292.988 215.064 318.06 189.992 318.06 159.064V56.7117C318.06 25.7837 292.988 0.71167 262.06 0.71167Z" fill="#FF5106"/>
<path d="M276.835 99.9941L210.884 41.2396L144.934 99.9941" stroke="#121212" stroke-width="15" stroke-linejoin="bevel"/>
<path d="M165.45 103.086V156.933H256.317V103.086" stroke="#121212" stroke-width="15" stroke-linejoin="bevel"/>
<path d="M20.9171 321.906H7.59033V263.601H20.9171V288.339H44.0724V263.601H57.3991V321.906H44.0724V300.666H20.9171V321.906ZM87.8242 323.155C74.2476 323.155 65.7518 314.41 65.7518 300.583C65.7518 286.84 74.2476 278.178 87.8242 278.178C101.401 278.178 109.896 286.84 109.896 300.583C109.896 314.41 101.401 323.155 87.8242 323.155ZM87.8242 311.078C93.4881 311.078 97.0697 306.997 97.0697 300.583C97.0697 294.253 93.4881 290.255 87.8242 290.255C82.1603 290.255 78.5788 294.253 78.5788 300.583C78.5788 306.997 82.1603 311.078 87.8242 311.078ZM134.247 323.155C124.335 323.155 119.754 316.575 119.754 305.331V279.427H132.415L132.248 303.582C132.248 308.413 134.747 311.245 138.911 311.245C143.576 311.245 146.324 307.33 146.324 300.666V279.427H158.902V321.906H148.573C148.907 319.407 149.406 316.076 150.323 312.994H146.824C145.158 319.491 141.494 323.155 134.247 323.155ZM185.966 323.155C174.805 323.155 168.224 317.825 168.224 308.746V307.913H180.802V308.746C180.802 311.411 182.717 312.994 185.966 312.994C189.131 312.994 191.047 311.661 191.047 309.329C191.047 307.746 189.797 306.497 187.715 305.914L179.302 303.415C173.139 301.583 169.474 297.335 169.474 291.921C169.474 283.342 175.804 278.261 186.632 278.178C197.543 278.178 203.957 283.508 203.957 292.587V293.42H191.38V292.587C191.38 289.922 189.631 288.339 186.632 288.339C183.883 288.339 182.301 289.672 182.301 291.921C182.301 293.337 183.634 294.503 185.966 295.252L193.046 297.418C199.876 299.5 203.874 303.915 203.874 309.329C203.874 318.075 197.21 323.155 185.966 323.155ZM232.524 323.155C219.031 323.155 210.618 314.41 210.618 300.583C210.618 286.84 218.948 278.178 232.274 278.178C245.601 278.178 253.93 285.84 253.93 298.084C253.93 300.417 253.68 302.832 253.347 304.248H222.946C223.945 309.829 227.443 313.244 232.524 313.244C237.688 313.244 240.937 311.494 240.937 308.746V308.496H252.931V308.746C252.931 317.575 245.018 323.155 232.524 323.155ZM223.029 296.585H241.52C240.437 291.171 237.105 288.006 232.274 288.006C227.443 288.006 224.112 291.171 223.029 296.585Z" fill="#121212"/>
<path d="M277.138 321.906H263.811V263.601H277.138V288.339H300.293V263.601H313.62V321.906H300.293V300.666H277.138V321.906ZM340.444 323.155C330.532 323.155 325.951 316.575 325.951 305.331V279.427H338.612L338.445 303.582C338.445 308.413 340.944 311.245 345.109 311.245C349.773 311.245 352.522 307.33 352.522 300.666V279.427H365.099V321.906H354.771C355.104 319.407 355.603 316.076 356.52 312.994H353.021C351.356 319.491 347.691 323.155 340.444 323.155ZM403.99 278.178C415.318 278.178 421.982 286.507 421.982 300.583C421.982 314.826 415.318 323.155 403.99 323.155C396.994 323.155 392.579 319.824 390.414 312.994H386.749C388.415 317.075 389.164 319.907 389.164 321.906H378.253V258.937H390.747V274.846C390.747 278.677 389.331 283.592 386.749 288.256H390.414C392.579 281.426 396.994 278.178 403.99 278.178ZM399.992 310.828C405.74 310.828 409.155 306.997 409.155 300.583C409.155 294.253 405.74 290.505 399.992 290.505C394.245 290.505 390.83 294.253 390.83 300.583C390.83 306.997 394.245 310.828 399.992 310.828Z" fill="#FF5106"/>
</svg>
